<svg width="1782.0600000000002" height="1782" xmlns="http://www.w3.org/2000/svg" xml:space="preserve" version="1.1" clip-rule="evenodd">
 <g>
  <title>Layer 1</title>
  <metadata id="CorelCorpID_0Corel-Layer"/>
  <g id="svg_5">
   <path class="fil0" d="m874.15,1144.99501c148.42,-55.61 285.69,-292.66 355.6,-511.14l103.1,0c2.92,-10.89 5.68,-21.54 8.28,-31.91l-136.21,0c-60.92,189.51 -161.8,433.28 -330.78,543.05l0.01,0zm-155.34,-443.5c-110.06,27.18 -177.25,129.09 -175,242.31c2.08,99.89 69.35,175.94 161.21,200.6c-75.51,-37.25 -129.18,-108.79 -131.16,-200.6c-2.26,-109.6 54,-200.06 144.95,-242.31z" fill="#00A0E3" id="svg_1"/>
   <path class="fil1" d="m0.715,1096.11501l83.91,0l0,83.92l-83.91,0l0,-83.92zm1444.93,-419.6l0,83.92l83.92,0l0,-83.92l83.92,0l0,83.92l-83.92,0l0,83.92l-83.92,0l0,83.92l83.92,0l0,83.92l0,83.92l83.92,0l0,-83.92l-83.92,0l-167.84,0l0,83.92l83.92,0l0,83.93c-124.7,0 -264.66,-5.65 -319.55,-138.12c87.9,-84.82 187.24,-238.63 223.84,-365.41l95.71,0zm167.85,251.77l83.93,0l0,83.92l-83.93,0l0,-83.92zm83.93,-83.94l83.92,0l0,-83.92l-83.92,0l0,83.92zm-997.14,-167.83c-137.65,0 -226.26,0 -363.91,0l0,83.92l83.92,0l0,83.93l-167.84,0l-83.93,0l0,-83.93l83.93,0l0,83.93l0,83.93l83.92,0l0,83.91l83.92,0l0,167.84c120.21,0 191.37,0 311.58,0c-118.49,-15.48 -216.31,-106.18 -219,-235.63c-2.6,-130.71 71.87,-235.25 187.42,-267.89l-0.01,-0.01zm-363.91,419.61l0,83.92l-83.93,0l0,-83.92l-83.91,0l0,-83.92l83.91,0l0,83.92l83.93,0zm-251.76,-167.84l83.92,0l0,-83.92l-83.92,0l0,83.92zm1056.29,-251.76l-279.67,0c117.15,32.09 173.78,129.6 196.26,192.59c32.54,-62.53 62.25,-130.64 83.4,-192.59l0.01,0zm-275.51,74.24c83.19,12.43 135.96,122.21 152.69,186.44c-36.29,68.55 -141.46,210.69 -239.85,207.39c-83.62,-2.8 -111.33,-120.97 -106.63,-195.57c6.14,-98.02 73.42,-216.25 193.78,-198.26l0.01,0zm-37.1,429.29l359.56,0c-38.5,-12.49 -84.26,-58.04 -102.14,-97.74c-92.7,66.49 -157.7,89.36 -257.42,97.74z" fill="#004E81" id="svg_2"/>
  </g>
 </g>

</svg>